<?xml version="1.0" encoding="UTF-8"?>
<svg id="Layer_1" xmlns="http://www.w3.org/2000/svg" version="1.1" viewBox="0 0 983 471.15">
  <!-- Generator: Adobe Illustrator 29.1.0, SVG Export Plug-In . SVG Version: 2.1.0 Build 142)  -->
  <defs>
    <style>
      .st0 {
        fill: #cacaca;
      }

      .st1 {
        fill: #2f2e41;
      }

      .st2 {
        fill: #fff;
      }

      .st3 {
        fill: #ffb6b6;
      }

      .st4 {
        fill: #9f616a;
      }

      .st5 {
        fill: #f0f0f0;
      }

      .st6 {
        fill: #3f3d56;
      }

      .st7 {
        fill: #2563eb;
      }

      .st8 {
        fill: #cbcbcb;
      }

      .st9 {
        fill: #a0616a;
      }

      .st10 {
        fill: #e4e4e4;
      }
    </style>
  </defs>
  <path class="st5" d="M225.23,411.74c2.43-19.55,14.55-38.81,33.19-45.18-7.35,20.12-7.35,42.2,0,62.32,2.86,7.75,6.86,16.07,4.16,23.88-1.68,4.86-5.78,8.58-10.36,10.9-4.59,2.33-9.67,3.43-14.7,4.52l-.99.82c-7.98-18.01-13.74-37.72-11.31-57.27Z"/>
  <path class="st2" d="M258.61,366.93c-10.86,12.17-17.61,27.44-19.29,43.66-.42,3.49-.3,7.02.38,10.46.77,3.34,2.41,6.4,4.77,8.89,2.15,2.36,4.62,4.53,6.16,7.37,1.55,2.97,1.76,6.45.57,9.58-1.36,3.89-4.03,7.06-6.75,10.08-3.02,3.34-6.22,6.77-7.5,11.2-.16.54-.98.26-.82-.27,2.24-7.71,9.72-12.09,13.29-19.04,1.67-3.24,2.37-7,.8-10.43-1.37-2.99-3.91-5.23-6.11-7.6-2.33-2.39-4.04-5.31-4.98-8.52-.85-3.4-1.11-6.92-.78-10.41.62-7.87,2.48-15.58,5.5-22.87,3.4-8.34,8.2-16.03,14.2-22.75.37-.42.94.24.57.65h0Z"/>
  <path class="st2" d="M239.56,405.34c-5.54-1.35-9.29-6.51-8.86-12.19.04-.56.91-.51.87.04-.41,5.3,3.1,10.1,8.27,11.33.54.13.27.95-.27.82Z"/>
  <path class="st2" d="M243.22,428.89c4.85-2.89,8.42-7.51,10.02-12.92.16-.54.98-.26.82.27-1.67,5.63-5.4,10.42-10.45,13.42-.48.29-.87-.49-.39-.78h0Z"/>
  <path class="st2" d="M248.04,381.52c2,.95,4.35.83,6.24-.32.48-.29.86.49.39.78-2.1,1.26-4.69,1.4-6.91.37-.22-.08-.34-.32-.28-.55.08-.23.32-.35.55-.28h0Z"/>
  <path class="st5" d="M315.26,401.48c-.29.19-.59.38-.88.58-3.93,2.58-7.64,5.48-11.09,8.66-.27.24-.54.49-.81.74-8.25,7.76-14.98,16.98-19.87,27.2-1.94,4.07-3.57,8.28-4.87,12.59-1.8,5.96-3.27,12.56-6.82,17.43-.37.51-.76,1-1.19,1.47h-32.12c-.07-.04-.15-.07-.22-.1l-1.28.06c.05-.23.11-.46.16-.69.03-.13.07-.26.1-.4.02-.09.04-.18.06-.26,0-.03.01-.06.02-.08.01-.08.04-.15.05-.23.32-1.31.65-2.62,1-3.94t0-.01c2.51-10.02,6.2-19.71,10.99-28.86.15-.27.29-.55.45-.82,2.22-4.05,4.77-7.91,7.61-11.55,1.57-1.99,3.23-3.89,4.99-5.71,4.55-4.69,9.82-8.63,15.59-11.68,11.52-6.08,24.86-8.41,37.17-4.7.31.1.62.19.94.29Z"/>
  <path class="st2" d="M315.19,401.89c-15.99,3.18-30.58,11.31-41.69,23.25-2.44,2.53-4.46,5.42-5.99,8.58-1.4,3.12-1.93,6.57-1.55,9.97.29,3.18.96,6.39.48,9.59-.55,3.3-2.48,6.21-5.31,7.99-3.43,2.29-7.47,3.21-11.46,3.98-4.43.85-9.04,1.66-12.73,4.43-.45.34-.94-.38-.49-.71,6.43-4.81,15.04-3.8,22.08-7.2,3.28-1.59,6.11-4.17,6.92-7.84.71-3.21.02-6.53-.3-9.74-.42-3.31-.03-6.68,1.15-9.8,1.37-3.23,3.28-6.19,5.64-8.78,5.23-5.91,11.36-10.95,18.16-14.95,7.74-4.61,16.2-7.86,25.04-9.62.55-.11.61.76.07.87h0Z"/>
  <path class="st2" d="M276.85,421.09c-3.61-4.41-3.5-10.79.27-15.07.37-.42,1.04.14.67.56-3.52,3.98-3.61,9.93-.22,14.02.36.43-.36.92-.71.49h0Z"/>
  <path class="st2" d="M265.6,442.1c5.61.61,11.25-.92,15.78-4.28.45-.33.94.38.49.71-4.72,3.49-10.59,5.07-16.43,4.43-.56-.06-.4-.92.16-.85h0Z"/>
  <path class="st2" d="M297.97,407.18c1.03,1.97,2.97,3.28,5.18,3.51.56.05.4.91-.16.85-2.43-.26-4.58-1.71-5.73-3.87-.13-.2-.08-.46.11-.6.2-.14.47-.09.6.11h0Z"/>
  <path class="st5" d="M803.34,418.65c-2.1-16.9-12.58-33.55-28.7-39.05,6.36,17.4,6.36,36.48,0,53.88-2.48,6.7-5.93,13.89-3.6,20.65,1.45,4.2,5,7.42,8.96,9.43,3.96,2.01,8.36,2.97,12.71,3.91l.85.71c6.9-15.57,11.88-32.61,9.78-49.51Z"/>
  <path class="st2" d="M774.48,379.92c9.39,10.52,15.22,23.73,16.67,37.75.37,3.01.26,6.07-.33,9.04-.66,2.88-2.09,5.54-4.12,7.68-1.86,2.04-3.99,3.91-5.32,6.37-1.34,2.56-1.52,5.58-.5,8.28,1.17,3.36,3.49,6.11,5.84,8.71,2.61,2.89,5.38,5.85,6.49,9.68.13.46.85.23.71-.24-1.93-6.67-8.41-10.45-11.49-16.46-1.44-2.8-2.04-6.06-.69-9.01,1.18-2.59,3.38-4.52,5.28-6.57,2.02-2.07,3.49-4.59,4.31-7.36.73-2.94.96-5.98.67-9-.54-6.8-2.14-13.47-4.75-19.77-2.94-7.21-7.09-13.86-12.27-19.67-.32-.36-.82.21-.5.56h0Z"/>
  <path class="st2" d="M790.96,413.12c4.79-1.16,8.03-5.63,7.66-10.54-.04-.48-.79-.44-.75.04.36,4.58-2.68,8.73-7.15,9.79-.47.11-.23.82.24.71h0Z"/>
  <path class="st2" d="M787.79,433.48c-4.19-2.5-7.28-6.49-8.66-11.17-.14-.46-.85-.23-.71.24,1.44,4.87,4.67,9.01,9.04,11.61.42.25.75-.42.34-.67h0Z"/>
  <path class="st2" d="M783.62,392.53c-1.73.82-3.76.72-5.4-.27-.41-.25-.75.42-.34.67,1.81,1.09,4.05,1.21,5.97.32.19-.07.3-.28.24-.47-.07-.2-.28-.3-.47-.24h0Z"/>
  <path class="st5" d="M725.51,409.79c.25.16.51.33.76.5,3.39,2.23,6.6,4.74,9.59,7.49.23.21.47.42.7.64,7.13,6.71,12.95,14.68,17.18,23.51,1.68,3.52,3.08,7.15,4.21,10.88,1.55,5.15,2.83,10.86,5.9,15.07.32.44.66.87,1.03,1.27h27.77c.06-.03.13-.06.19-.09l1.11.05c-.04-.2-.09-.4-.14-.6-.03-.11-.06-.23-.08-.34-.02-.08-.04-.15-.05-.22,0-.03-.01-.05-.02-.07-.01-.07-.03-.13-.04-.2-.28-1.13-.57-2.27-.86-3.4t0-.01c-2.17-8.66-5.36-17.04-9.5-24.95-.13-.23-.25-.48-.39-.71-1.92-3.5-4.12-6.84-6.58-9.98-1.35-1.72-2.79-3.36-4.31-4.94-3.94-4.05-8.49-7.46-13.48-10.1-9.96-5.26-21.49-7.27-32.13-4.06-.27.08-.54.16-.81.25Z"/>
  <path class="st2" d="M725.57,410.14c13.83,2.75,26.44,9.78,36.04,20.1,2.11,2.19,3.86,4.69,5.18,7.42,1.21,2.7,1.67,5.68,1.34,8.62-.25,2.75-.83,5.53-.41,8.29.48,2.85,2.14,5.37,4.59,6.91,2.96,1.98,6.46,2.78,9.91,3.44,3.83.73,7.81,1.44,11.01,3.83.39.29.81-.33.43-.62-5.56-4.16-13.01-3.29-19.09-6.22-2.84-1.37-5.28-3.6-5.98-6.78-.61-2.78-.02-5.64.26-8.42.37-2.86.02-5.77-.99-8.47-1.18-2.79-2.83-5.36-4.88-7.59-4.52-5.11-9.82-9.47-15.7-12.93-6.69-3.99-14.01-6.8-21.64-8.32-.47-.09-.53.66-.06.75h0Z"/>
  <path class="st2" d="M758.72,426.73c3.12-3.81,3.03-9.33-.23-13.03-.32-.36-.9.12-.58.48,3.04,3.44,3.12,8.59.19,12.12-.31.37.31.8.62.43Z"/>
  <path class="st2" d="M768.45,444.9c-4.85.53-9.72-.8-13.64-3.7-.39-.29-.82.33-.43.62,4.08,3.02,9.16,4.38,14.2,3.83.48-.05.34-.79-.13-.74h0Z"/>
  <path class="st2" d="M740.46,414.71c-.89,1.7-2.57,2.84-4.47,3.03-.48.05-.34.79.13.74,2.1-.22,3.96-1.48,4.96-3.34.11-.17.07-.4-.09-.52-.17-.12-.4-.07-.52.09Z"/>
  <path class="st0" d="M861.3,34.14H207.81c-.52,0-.95-.42-.95-.95s.42-.95.95-.95h653.49c.52,0,.95.42.95.95s-.42.95-.95.95Z"/>
  <circle class="st6" cx="229.16" cy="10.43" r="10.43"/>
  <circle class="st6" cx="265.2" cy="10.43" r="10.43"/>
  <circle class="st6" cx="301.24" cy="10.43" r="10.43"/>
  <path class="st6" d="M839.71,6.38h-25.61c-1.05,0-1.9-.85-1.9-1.9s.85-1.9,1.9-1.9h25.61c1.05,0,1.9.84,1.9,1.89,0,1.05-.84,1.9-1.89,1.9,0,0,0,0-.01,0h0Z"/>
  <path class="st6" d="M839.71,13.49h-25.61c-1.05,0-1.9-.85-1.9-1.9,0-1.05.85-1.89,1.9-1.9h25.61c1.05,0,1.9.85,1.9,1.9,0,1.05-.85,1.9-1.9,1.9h0Z"/>
  <path class="st6" d="M839.71,20.61h-25.61c-1.05,0-1.9-.85-1.9-1.9s.85-1.9,1.9-1.9h25.61c1.05,0,1.9.84,1.9,1.89,0,1.05-.84,1.9-1.89,1.9,0,0,0,0-.01,0h0Z"/>
  <rect class="st7" x="705.02" y="74.82" width="136.58" height="81.89"/>
  <path class="st10" d="M814.35,194.32h-81.26c-2.11,0-3.83-1.72-3.82-3.83,0-2.11,1.71-3.82,3.82-3.82h81.26c2.11,0,3.83,1.71,3.83,3.83s-1.71,3.83-3.83,3.83Z"/>
  <path class="st10" d="M801.25,181.22h-55.06c-2.11,0-3.83-1.71-3.83-3.82,0-2.11,1.71-3.83,3.82-3.83h55.07c2.11,0,3.83,1.71,3.83,3.82,0,2.11-1.71,3.83-3.82,3.83h-.01Z"/>
  <rect class="st5" x="705.02" y="223.72" width="136.58" height="81.89"/>
  <path class="st10" d="M814.35,343.23h-81.26c-2.11,0-3.83-1.71-3.83-3.83s1.71-3.83,3.83-3.83h81.26c2.11,0,3.83,1.71,3.83,3.83s-1.71,3.83-3.83,3.83Z"/>
  <path class="st10" d="M801.25,330.13h-55.06c-2.11,0-3.83-1.71-3.83-3.83s1.71-3.83,3.83-3.83h55.06c2.11,0,3.83,1.71,3.83,3.83s-1.71,3.83-3.83,3.83h0Z"/>
  <path class="st10" d="M634.99,132.23H222.72c-2.11,0-3.83-1.71-3.83-3.83s1.71-3.83,3.83-3.83h412.26c2.11,0,3.83,1.71,3.83,3.83s-1.71,3.83-3.83,3.83Z"/>
  <path class="st10" d="M634.99,161.23H222.72c-2.11,0-3.83-1.71-3.83-3.83s1.71-3.83,3.83-3.83h412.26c2.11,0,3.83,1.71,3.83,3.83s-1.71,3.83-3.83,3.83Z"/>
  <path class="st10" d="M634.99,190.23H222.72c-2.11,0-3.83-1.71-3.83-3.83s1.71-3.83,3.83-3.83h412.26c2.11,0,3.83,1.71,3.83,3.83s-1.71,3.83-3.83,3.83Z"/>
  <path class="st10" d="M634.99,219.23H222.72c-2.11,0-3.83-1.71-3.83-3.83s1.71-3.83,3.83-3.83h412.26c2.11,0,3.83,1.71,3.83,3.83s-1.71,3.83-3.83,3.83Z"/>
  <path class="st10" d="M634.99,277.23H222.72c-2.11,0-3.83-1.71-3.83-3.83s1.71-3.83,3.83-3.83h412.26c2.11,0,3.83,1.71,3.83,3.83s-1.71,3.83-3.83,3.83Z"/>
  <path class="st10" d="M634.99,306.23H222.72c-2.11,0-3.83-1.71-3.83-3.83s1.71-3.83,3.83-3.83h412.26c2.11,0,3.83,1.71,3.83,3.83s-1.71,3.83-3.83,3.83Z"/>
  <path class="st10" d="M566.89,103.13h-276.06c-2.11,0-3.83-1.71-3.83-3.82,0-2.11,1.71-3.83,3.82-3.83h276.07c2.11,0,3.83,1.71,3.83,3.82,0,2.11-1.71,3.83-3.82,3.83h-.01Z"/>
  <polygon class="st3" points="672.66 462.79 680.63 462.79 684.42 432.05 672.66 432.05 672.66 462.79"/>
  <path class="st1" d="M670.63,460.19h15.7s0,0,0,0c5.52,0,10,4.48,10,10v.33h-25.7s0-10.33,0-10.33Z"/>
  <polygon class="st3" points="631.92 462.79 639.9 462.79 643.69 432.05 631.92 432.05 631.92 462.79"/>
  <path class="st1" d="M629.89,460.19h15.7s0,0,0,0c5.52,0,10,4.48,10,10v.33h-25.7s0-10.33,0-10.33Z"/>
  <path class="st3" d="M725,120.2c0-5-4.05-9.05-9.05-9.06-5,0-9.05,4.05-9.06,9.05,0,1.18.23,2.35.68,3.45l-18.32,28.98-11.4,22.98,9.41,8.35,7.24-7.62,23.68-47.37c4.01-1.02,6.81-4.63,6.81-8.76Z"/>
  <path class="st3" d="M629.94,215.26l-17.95-2.78-4.28,32.48-23.3,50.14c-4.25,2.65-5.54,8.23-2.9,12.48s8.23,5.54,12.48,2.9c4.24-2.64,5.54-8.22,2.9-12.47l24.36-44,8.69-38.75Z"/>
  <path class="st1" d="M639.89,269.37s-15.79,14.6-13.78,51.31l4.42,56.71-1.12,79.05,16.22-1.27,14.17-132.48,13.58,54.32-4.87,72.36,15.62.36,16.41-81.77-3.89-60.62-6.53-37.97h-50.22Z"/>
  <path class="st7" d="M656.78,183.87l-37.72,10.56,19.18,57.47-2.87,21.98,58.16.38-13.47-42.49s7.56-15.54-1.07-26.44l-22.21-21.46Z"/>
  <path class="st7" d="M652.26,192.93l4.53-9.05s-.15-2.27,10.49-3.4l12.48-12.4,11.42,11.38-19.3,28.56-19.61-15.09Z"/>
  <path class="st7" d="M634.15,201.98s-13.58-15.09-21.12-7.54-3.68,31.53-3.68,31.53l23.5,3.65,1.3-27.63Z"/>
  <path id="a1b14455-bb06-4eca-a63d-5bd2b70c7569-143" class="st3" d="M641.04,143.98c23.13.1,23.12,35.27,0,35.37-23.13-.1-23.12-35.27,0-35.37Z"/>
  <path class="st1" d="M643.61,160.5c3.13,1.84,6.37,3.72,9.98,4.12s7.69-1.12,9.14-4.45c.45-1.15.69-2.38.71-3.62.32-6.32-1.87-12.51-6.08-17.22-4.28-4.68-10.39-7.26-16.73-7.07-5.98.26-11.5,3.09-16.8,5.86-4.88,2.54-10.02,5.35-12.67,10.17-3.93,7.14-1.06,15.89-.3,24,1.08,12.23-2.85,24.37-10.9,33.63l32.9,3.12c4,.38,8.09.75,12.01-.12,10.35-2.31,16.87-12.58,14.55-22.93-.82-3.68-2.71-7.03-5.42-9.65-4.67-4.5-12.18-7.68-12.37-14.16"/>
  <polygon class="st4" points="888.83 462.05 880.1 462.05 875.94 428.38 888.83 428.38 888.83 462.05"/>
  <path class="st1" d="M891.05,470.52h-28.15v-.36c0-6.05,4.91-10.96,10.96-10.96h17.19s0,11.31,0,11.31Z"/>
  <polygon class="st4" points="970 462.05 961.27 462.05 957.12 428.38 970 428.38 970 462.05"/>
  <path class="st1" d="M972.23,470.52h-28.15v-.36c0-6.05,4.91-10.96,10.96-10.96h17.19s0,11.31,0,11.31Z"/>
  <path class="st1" d="M885.35,291.18s-7.33,19.89-6.28,28.26-7.33,66.99-6.28,72.23-1.05,31.4,0,35.59-2.94,9.19-.84,13.38,5.03,12.79,5.03,12.79l13.61-1.05,2.09-11.51s6.28-1.05,5.23-7.33,5.23-48.15,5.23-48.15l17.8-58.62,25.12,53.39s1.05,37.68,4.19,41.87-3.14,15.7,0,19.89,6.28,11.51,6.28,11.51h15.7v-8.37s9.42-5.23,0-20.94l-6.37-94.3-6.28-42.92-74.24,4.27Z"/>
  <circle class="st9" cx="924.37" cy="140" r="19.55"/>
  <path class="st1" d="M907.73,138.66c1.38,3.52,2.76,7.05,4.14,10.57,1.7,4.33,3.64,8.97,7.61,11.39,4.91,2.99,11.46,1.53,16.21-1.7,11.56-7.87,14.54-23.62,6.67-35.17-4.15-6.09-10.74-10.07-18.07-10.9l-.2,3.54-4.34-3.64c-1.17,2.01-3.76,2.7-5.77,1.52-.29-.17-.55-.37-.79-.59,1.14,2.36-.18,5.25-2.08,7.06-2.34,2.23-9.02,4.9-8.74,8.88.19,2.65,4.27,6.3,5.35,9.05Z"/>
  <path class="st4" d="M978.19,320.1c2.55-3.8,1.53-8.94-2.27-11.49-.41-.27-.83-.51-1.28-.7l.39-18.91-11.44-3.04-.18,26.72c-1.57,4.32.67,9.1,4.99,10.66,3.62,1.31,7.66-.03,9.78-3.24Z"/>
  <path class="st6" d="M938.89,171.64s-15.15-7.58-29.46-2.53-21.88,10.94-21.88,10.94l9.26,48.82-12.63,65.65s64.81-5.05,70.7,0c5.89,5.05,5.89-5.89,5.89-5.89l-5.05-62.29,9.26-39.56-26.09-15.15Z"/>
  <path class="st4" d="M874.95,321.22c3.51-2.93,3.98-8.15,1.05-11.66-.31-.37-.66-.72-1.03-1.03l5.69-18.04-10.12-6.13-7.67,25.59c-2.72,3.71-1.91,8.92,1.8,11.63,3.1,2.27,7.36,2.12,10.3-.36h0Z"/>
  <path class="st6" d="M893.44,180.06h-5.89s-9.26,5.89-9.26,14.31-13.47,106.9-13.47,106.9l14.31,2.53,12.63-69.02,9.26-18.52-7.58-36.19Z"/>
  <path class="st6" d="M948.99,186.79h15.99s5.05,5.05,7.58,16.83,5.05,58.08,5.05,58.08l-1.68,42.09h-12.63l-1.68-54.71-8.42-35.35-4.21-26.93Z"/>
  <path class="st4" d="M207.68,242.8c-.4.2-.79.42-1.16.68l-37.44-14.64-1.48-9.65-14.86.34.97,17.34c.16,2.88,2.2,5.3,5.01,5.96l44.55,10.34c1.48,4.46,6.3,6.88,10.76,5.4,4.46-1.48,6.88-6.3,5.4-10.76-1.48-4.46-6.3-6.88-10.76-5.4-.33.11-.66.24-.98.39h0Z"/>
  <polygon class="st4" points="151.46 460.88 161.4 460.88 166.13 422.55 151.46 422.55 151.46 460.88"/>
  <path class="st1" d="M148.93,457.64h19.57s0,0,0,0c6.89,0,12.47,5.58,12.47,12.47v.41h-32.04s0-12.88,0-12.88Z"/>
  <polygon class="st4" points="103.64 460.88 113.58 460.88 118.31 422.55 103.64 422.55 103.64 460.88"/>
  <path class="st1" d="M101.1,457.64h19.57s0,0,0,0c6.89,0,12.47,5.58,12.47,12.47v.41h-32.04s0-12.88,0-12.88Z"/>
  <path class="st1" d="M109.4,168.63c-2.83-11.69-5.23-24.87.11-35.63,3.7-7.47,17.4-9.98,25.26-7.29s13.53,9.99,16.03,17.95,2.21,16.53,1.12,24.81c-14.44-.28-28.89-.55-42.52.17Z"/>
  <circle class="st4" cx="133.78" cy="151.79" r="16.84"/>
  <path class="st1" d="M113.19,148.32c-.22-11.68,9.07-21.33,20.75-21.55,11.68-.22,21.33,9.07,21.55,20.75,0,.45,0,.91-.02,1.36-14.42.03-28.83.06-42.29-.56Z"/>
  <path class="st1" d="M119.8,230.77l-7.04,11.74s-19.29,36.18-18.14,66.17l4.27,37.36-4.69,9.17,3.14,16.13-5.82,11.55,10.53,55.78.45,12.1h17.02l-.9-12.32,7.17-54.34,12.1-58.02,6.27,50.08-2.24,12.54,2.91,10.53,4.03,32.48.45,15.68,15.46,1.79,5.82-58.02,3.36-27.68-18.01-122.74-36.14-9.98Z"/>
  <path class="st8" d="M117.56,174.08l-10.49,4.45-5.89,24.38,12.4,31.76-4.64,15.87c14.03,24.01,31.4,27.49,51.85,12.1-4.33-12.15-3.7-24.64.61-37.38,0,0,10.75-10.01,3.24-23.03l-7.17-19.45-8.87-4.44-31.05-4.26Z"/>
  <path class="st8" d="M155.42,187.02l2.38-4.42s6.28.94,8.84,8.5,3.23,38.09,3.23,38.09l-13.43.68-1.02-42.85Z"/>
  <path class="st7" d="M483.42,186.67l-399.22,102.89c-2.05.52-4.13-.72-4.65-2.77-.52-2.04.71-4.11,2.74-4.64l399.22-102.89c2.05-.53,4.14.69,4.67,2.74s-.69,4.14-2.74,4.67c0,0-.02,0-.02,0h0Z"/>
  <path class="st4" d="M102.79,290.66c4.31-2.14,6.06-7.37,3.92-11.68-.23-.46-.5-.9-.8-1.31l6.51-63.66h-14.07l-5.17,62.17c-3.68,3.13-4.13,8.66-1,12.34,2.62,3.08,7.01,3.97,10.62,2.14h0Z"/>
  <path class="st8" d="M115.65,185.74l-4.93-6.97s-8.67-5.88-13.09,7.65-3.74,38.6-3.74,38.6l16.84,6.97,4.93-46.25Z"/>
  <path class="st0" d="M382,471.15H1c-.55,0-1-.45-1-1s.45-1,1-1h381c.55,0,1,.45,1,1s-.45,1-1,1Z"/>
  <path class="st0" d="M982,471.15h-381c-.55,0-1-.45-1-1s.45-1,1-1h381c.55,0,1,.45,1,1s-.45,1-1,1Z"/>
</svg>